<svg xmlns="http://www.w3.org/2000/svg" xml:space="preserve" width="2000" height="446" data-id="lg_RtuMPYhKcqU07uzYcQ" data-version="1" viewBox="0 0 2000 446"><g data-padding="20"><g transform="translate(10 7.964)scale(.96429)"><rect width="232.949" height="226.768" x="509.637" y="-291.394" fill="none" rx="0" ry="0" transform="translate(564.03 386.01)"/><path fill="#9841f0" d="M1115.9 159.48q.46 1.85.46 4.64 0 2.67-.46 4.64h-9.28q-.47-1.97-.47-4.64 0-2.79.47-4.64h-8.12q.46 1.85.46 4.64 0 2.67-.46 4.64h-3.48q.46 1.85.46 4.64 0 2.67-.46 4.64.46 1.85.46 4.64 0 2.67-.46 4.64h6.96q.46 1.85.46 4.64 0 2.67-.46 4.64h-23.2q-.47-1.97-.47-4.64 0-2.79.47-4.64h6.96q-.47-1.97-.47-4.64 0-2.79.47-4.64-.47-1.97-.47-4.64 0-2.79.47-4.64-.47-1.97-.47-4.64 0-2.79.47-4.64h-6.96q-.47-1.97-.47-4.64 0-2.79.47-4.64h11.6q.46 1.85.46 4.64 0 2.67-.46 4.64h4.64q-.47-1.97-.47-4.64 0-2.79.47-4.64h17.4q.46 1.85.46 4.64 0 2.67-.46 4.64Zm46.86 13.92q0 2.67-.46 4.64h-3.48q.46 1.85.46 4.64 0 2.67-.46 4.64h-5.8q.46 1.85.46 4.64 0 2.67-.46 4.64h-18.56q-.47-1.97-.47-4.64 0-2.79.47-4.64h-5.8q-.47-1.97-.47-4.64 0-2.79.47-4.64h-3.48q-.47-1.97-.47-4.64 0-2.79.47-4.64h3.48q-.47-1.97-.47-4.64 0-2.79.47-4.64h5.8q-.47-1.97-.47-4.64 0-2.79.47-4.64h18.56q.46 1.85.46 4.64 0 2.67-.46 4.64h5.8q.46 1.85.46 4.64 0 2.67-.46 4.64h3.48q.46 1.85.46 4.64m-13.22 4.64h3.48q-.47-1.97-.47-4.64 0-2.79.47-4.64h-3.48q-.47-1.97-.47-4.64 0-2.79.47-4.64h-11.6q.46 1.85.46 4.64 0 2.67-.46 4.64h-3.48q.46 1.85.46 4.64 0 2.67-.46 4.64h3.48q.46 1.85.46 4.64 0 2.67-.46 4.64h11.6q-.47-1.97-.47-4.64 0-2.79.47-4.64m49.89 0h9.28q.46 1.85.46 4.64 0 2.67-.46 4.64h-4.64q.46 1.85.46 4.64 0 2.67-.46 4.64h-23.2q-.47-1.97-.47-4.64 0-2.79.47-4.64h-4.64q-.47-1.97-.47-4.64 0-2.79.47-4.64h-4.64q-.47-1.97-.47-4.64 0-2.79.47-4.64h4.64q-.47-1.97-.47-4.64 0-2.79.47-4.64h4.64q-.47-1.97-.47-4.64 0-2.79.47-4.64h23.2q.46 1.85.46 4.64 0 2.67-.46 4.64h4.64q.46 1.85.46 4.64 0 2.67-.46 4.64h-9.28q-.47-1.97-.47-4.64 0-2.79.47-4.64h-13.92q.46 1.85.46 4.64 0 2.67-.46 4.64h-4.64q.46 1.85.46 4.64 0 2.67-.46 4.64h4.64q.46 1.85.46 4.64 0 2.67-.46 4.64h13.92q-.47-1.97-.47-4.64 0-2.79.47-4.64m46.39 0h9.28q.46 1.85.46 4.64 0 2.67-.46 4.64h-4.64q.46 1.85.46 4.64 0 2.67-.46 4.64h-23.2q-.47-1.97-.47-4.64 0-2.79.47-4.64h-4.64q-.47-1.97-.47-4.64 0-2.79.47-4.64h-4.64q-.47-1.97-.47-4.64 0-2.79.47-4.64h4.64q-.47-1.97-.47-4.64 0-2.79.47-4.64h4.64q-.47-1.97-.47-4.64 0-2.79.47-4.64h23.2q.46 1.85.46 4.64 0 2.67-.46 4.64h4.64q.46 1.85.46 4.64 0 2.67-.46 4.64h-9.28q-.47-1.97-.47-4.64 0-2.79.47-4.64h-13.92q.46 1.85.46 4.64 0 2.67-.46 4.64h-4.64q.46 1.85.46 4.64 0 2.67-.46 4.64h4.64q.46 1.85.46 4.64 0 2.67-.46 4.64h13.92q-.47-1.97-.47-4.64 0-2.79.47-4.64m56.14-4.64q0 2.67-.46 4.64h-3.48q.46 1.85.46 4.64 0 2.67-.46 4.64h-5.8q.46 1.85.46 4.64 0 2.67-.46 4.64h-18.56q-.47-1.97-.47-4.64 0-2.79.47-4.64h-5.8q-.47-1.97-.47-4.64 0-2.79.47-4.64h-3.48q-.47-1.97-.47-4.64 0-2.79.47-4.64h3.48q-.47-1.97-.47-4.64 0-2.79.47-4.64h5.8q-.47-1.97-.47-4.64 0-2.79.47-4.64h18.56q.46 1.85.46 4.64 0 2.67-.46 4.64h5.8q.46 1.85.46 4.64 0 2.67-.46 4.64h3.48q.46 1.85.46 4.64m-13.22 4.64h3.48q-.47-1.97-.47-4.64 0-2.79.47-4.64h-3.48q-.47-1.97-.47-4.64 0-2.79.47-4.64h-11.6q.46 1.85.46 4.64 0 2.67-.46 4.64h-3.48q.46 1.85.46 4.64 0 2.67-.46 4.64h3.48q.46 1.85.46 4.64 0 2.67-.46 4.64h11.6q-.47-1.97-.47-4.64 0-2.79.47-4.64m-151.5 100.33q0 2.66-.46 4.64h-4.64q.46 1.85.46 4.64 0 2.66-.46 4.64h-25.52q-.47-1.98-.47-4.64 0-2.79.47-4.64h20.88q-.47-1.98-.47-4.64 0-2.79.47-4.64h-18.56q-.47-1.98-.47-4.64 0-2.79.47-4.64h-4.64q-.47-1.98-.47-4.64 0-2.79.47-4.64h4.64q-.47-1.98-.47-4.64 0-2.79.47-4.64h25.52q.46 1.85.46 4.64 0 2.66-.46 4.64h-20.88q.46 1.85.46 4.64 0 2.66-.46 4.64h18.56q.46 1.85.46 4.64 0 2.66-.46 4.64h4.64q.46 1.85.46 4.64m48.26 4.64q.46 1.85.46 4.64 0 2.66-.46 4.64h-9.28q-.47-1.98-.47-4.64 0-2.79.47-4.64h-4.64q-.47-1.98-.47-4.64 0-2.79.47-4.64h-13.92q.46 1.85.46 4.64 0 2.66-.46 4.64h13.92q.46 1.85.46 4.64 0 2.66-.46 4.64h-18.56q-.47-1.98-.47-4.64 0-2.79.47-4.64h-4.64q-.47-1.98-.47-4.64 0-2.79.47-4.64h4.64q-.47-1.98-.47-4.64 0-2.79.47-4.64h18.56q-.47-1.98-.47-4.64 0-2.79.47-4.64h-16.24q-.47-1.98-.47-4.64 0-2.79.47-4.64h20.88q.46 1.85.46 4.64 0 2.66-.46 4.64h4.64q.46 1.85.46 4.64 0 2.66-.46 4.64.46 1.85.46 4.64 0 2.66-.46 4.64.46 1.85.46 4.64 0 2.66-.46 4.64Zm46.4-46.4q.46 1.85.46 4.64 0 2.66-.46 4.64.46 1.85.46 4.64 0 2.66-.46 4.64.46 1.85.46 4.64 0 2.66-.46 4.64.46 1.85.46 4.64 0 2.66-.46 4.64.46 1.85.46 4.64 0 2.66-.46 4.64.46 1.85.46 4.64 0 2.66-.46 4.64h-9.28q-.47-1.98-.47-4.64 0-2.79.47-4.64h-3.48q-.47-1.98-.47-4.64 0-2.79.47-4.64h3.48q-.47-1.98-.47-4.64 0-2.79.47-4.64h-3.48q-.47-1.98-.47-4.64 0-2.79.47-4.64h3.48q-.47-1.98-.47-4.64 0-2.79.47-4.64-.47-1.98-.47-4.64 0-2.79.47-4.64-.47-1.98-.47-4.64 0-2.79.47-4.64h9.28q.46 1.85.46 4.64 0 2.66-.46 4.64m-14.62 13.92q0 2.66-.46 4.64h-11.6q.46 1.85.46 4.64 0 2.66-.46 4.64h-3.48q.46 1.85.46 4.64 0 2.66-.46 4.64h3.48q.46 1.85.46 4.64 0 2.66-.46 4.64h11.6q.46 1.85.46 4.64 0 2.66-.46 4.64h-12.76q-.47-1.98-.47-4.64 0-2.79.47-4.64h-5.8q-.47-1.98-.47-4.64 0-2.79.47-4.64h-3.48q-.47-1.98-.47-4.64 0-2.79.47-4.64h3.48q-.47-1.98-.47-4.64 0-2.79.47-4.64h5.8q-.47-1.98-.47-4.64 0-2.79.47-4.64h12.76q.46 1.85.46 4.64m61.02 32.48q.46 1.85.46 4.64 0 2.66-.46 4.64h-9.28q-.47-1.98-.47-4.64 0-2.79.47-4.64h-4.64q-.47-1.98-.47-4.64 0-2.79.47-4.64h-13.92q.46 1.85.46 4.64 0 2.66-.46 4.64h13.92q.46 1.85.46 4.64 0 2.66-.46 4.64h-18.56q-.47-1.98-.47-4.64 0-2.79.47-4.64h-4.64q-.47-1.98-.47-4.64 0-2.79.47-4.64h4.64q-.47-1.98-.47-4.64 0-2.79.47-4.64h18.56q-.47-1.98-.47-4.64 0-2.79.47-4.64h-16.24q-.47-1.98-.47-4.64 0-2.79.47-4.64h20.88q.46 1.85.46 4.64 0 2.66-.46 4.64h4.64q.46 1.85.46 4.64 0 2.66-.46 4.64.46 1.85.46 4.64 0 2.66-.46 4.64.46 1.85.46 4.64 0 2.66-.46 4.64Z"/><path fill="#93de9e" d="M1192.604 87.226V.058H746.718v445.885h445.886v-87.17h-7.26v79.91H753.979V7.317h431.365v79.908Z"/></g><path fill="transparent" stroke="transparent" d="M720 0h560v446H720z"/></g></svg>